<svg width="61" height="44" viewBox="0 0 61 44" fill="none" xmlns="http://www.w3.org/2000/svg">
    <path d="M3.968 40.7143C3.30533 40.7143 2.694 40.5929 2.134 40.3503C1.58333 40.0983 1.13067 39.7436 0.776 39.2863L2.036 37.7743C2.568 38.4929 3.17467 38.8523 3.856 38.8523C4.78 38.8523 5.242 38.3109 5.242 37.2283V32.5663H1.798V30.7463H7.496V37.1023C7.496 38.3063 7.19733 39.2116 6.6 39.8183C6.00267 40.4156 5.12533 40.7143 3.968 40.7143ZM15.9851 38.4463H11.4351L10.5671 40.5463H8.24314L12.6111 30.7463H14.8511L19.2331 40.5463H16.8531L15.9851 38.4463ZM15.2711 36.7243L13.7171 32.9723L12.1631 36.7243H15.2711ZM27.4459 35.4503C28.0059 35.6276 28.4446 35.9263 28.7619 36.3463C29.0792 36.7569 29.2379 37.2656 29.2379 37.8723C29.2379 38.7309 28.9019 39.3936 28.2299 39.8603C27.5672 40.3176 26.5966 40.5463 25.3179 40.5463H20.2499V30.7463H25.0379C26.2326 30.7463 27.1472 30.9749 27.7819 31.4323C28.4259 31.8896 28.7479 32.5103 28.7479 33.2943C28.7479 33.7703 28.6312 34.1949 28.3979 34.5683C28.1739 34.9416 27.8566 35.2356 27.4459 35.4503ZM22.5039 32.4543V34.7643H24.7579C25.3179 34.7643 25.7426 34.6663 26.0319 34.4703C26.3212 34.2743 26.4659 33.9849 26.4659 33.6023C26.4659 33.2196 26.3212 32.9349 26.0319 32.7483C25.7426 32.5523 25.3179 32.4543 24.7579 32.4543H22.5039ZM25.1499 38.8383C25.7472 38.8383 26.1952 38.7403 26.4939 38.5443C26.8019 38.3483 26.9559 38.0449 26.9559 37.6343C26.9559 36.8223 26.3539 36.4163 25.1499 36.4163H22.5039V38.8383H25.1499ZM38.151 35.4503C38.711 35.6276 39.1496 35.9263 39.467 36.3463C39.7843 36.7569 39.943 37.2656 39.943 37.8723C39.943 38.7309 39.607 39.3936 38.935 39.8603C38.2723 40.3176 37.3016 40.5463 36.023 40.5463H30.955V30.7463H35.743C36.9376 30.7463 37.8523 30.9749 38.487 31.4323C39.131 31.8896 39.453 32.5103 39.453 33.2943C39.453 33.7703 39.3363 34.1949 39.103 34.5683C38.879 34.9416 38.5616 35.2356 38.151 35.4503ZM33.209 32.4543V34.7643H35.463C36.023 34.7643 36.4476 34.6663 36.737 34.4703C37.0263 34.2743 37.171 33.9849 37.171 33.6023C37.171 33.2196 37.0263 32.9349 36.737 32.7483C36.4476 32.5523 36.023 32.4543 35.463 32.4543H33.209ZM35.855 38.8383C36.4523 38.8383 36.9003 38.7403 37.199 38.5443C37.507 38.3483 37.661 38.0449 37.661 37.6343C37.661 36.8223 37.059 36.4163 35.855 36.4163H33.209V38.8383H35.855ZM49.248 38.7263V40.5463H41.66V30.7463H49.066V32.5663H43.914V34.6943H48.464V36.4583H43.914V38.7263H49.248ZM57.2966 40.5463L55.4066 37.8163H55.2946H53.3206V40.5463H51.0526V30.7463H55.2946C56.1626 30.7463 56.914 30.8909 57.5486 31.1803C58.1926 31.4696 58.6873 31.8803 59.0326 32.4123C59.378 32.9443 59.5506 33.5743 59.5506 34.3023C59.5506 35.0303 59.3733 35.6603 59.0186 36.1923C58.6733 36.7149 58.1786 37.1163 57.5346 37.3963L59.7326 40.5463H57.2966ZM57.2546 34.3023C57.2546 33.7516 57.0773 33.3316 56.7226 33.0423C56.368 32.7436 55.85 32.5943 55.1686 32.5943H53.3206V36.0103H55.1686C55.85 36.0103 56.368 35.8609 56.7226 35.5623C57.0773 35.2636 57.2546 34.8436 57.2546 34.3023Z" fill="#343A40"/>
    <rect width="13.5449" height="27.0898" transform="matrix(-4.37114e-08 1 1 4.37114e-08 20.2688 4.5703)" fill="#FF6868"/>
    <path d="M49.9772 7.87663V9.75665H59.4819C60.3244 9.75665 61 10.4371 61 11.2742C61 12.1091 60.3244 12.7929 59.4819 12.7929H49.9772V14.6621C49.9772 17.3765 47.7715 19.5745 45.0674 19.5745L15.4876 19.5767V21.0282C15.4876 21.8631 14.8066 22.5463 13.9695 22.5463C13.1297 22.5463 12.4514 21.8631 12.4514 21.0282L12.4541 12.7864L4.03622 12.7923V17.2703C4.03622 18.1052 3.35681 18.7884 2.51811 18.7884C1.67887 18.7884 1 18.1052 1 17.2703L1.00379 5.28088C1.00379 4.44598 1.68266 3.76332 2.5219 3.76332C3.35898 3.76332 4.03947 4.44598 4.03947 5.28088V9.75936L12.4573 9.7534L12.4606 1.51758C12.4606 0.681587 13.1411 9.53674e-06 13.9787 9.53674e-06C14.8158 9.53674e-06 15.4963 0.681587 15.4963 1.51758V2.97176H45.0804C47.777 2.9685 49.9772 5.17144 49.9772 7.87663ZM15.4838 16.547L45.0642 16.5443C46.099 16.5443 46.9388 15.7066 46.9388 14.6675L46.9442 7.88529C46.9442 6.84776 46.105 6.01068 45.0701 6.01068H39.2301V10.4458C39.2301 11.2834 38.5469 11.9634 37.712 11.9634C36.8771 11.9634 36.1945 11.2834 36.1945 10.4458V6.01068H33.1523V10.4458C33.1523 11.2834 32.4718 11.9634 31.6347 11.9634C30.7971 11.9634 30.1166 11.2834 30.1166 10.4458V6.01068H27.0809V10.4458C27.0809 11.2834 26.4004 11.9634 25.5628 11.9634C24.7247 11.9634 24.0447 11.2834 24.0447 10.4458V6.01068H15.4876L15.4838 16.547Z" fill="#343A40"/>
</svg>
