 <svg version="1.0" xmlns="http://www.w3.org/2000/svg" width="700.000000pt" height="700.000000pt" viewBox="0 0 700.000000 700.000000" preserveAspectRatio="xMidYMid meet">
<metadata>
Created by potrace 1.12, written by Peter Selinger 2001-2015
</metadata>
<g transform="translate(0.000000,700.000000) scale(0.100000,-0.100000)" fill="#000000" stroke="none">
<path d="M0 6020 l0 -980 980 0 980 0 0 980 0 980 -980 0 -980 0 0 -980z
m1680 0 l0 -700 -700 0 -700 0 0 693 c0 382 3 697 7 700 3 4 318 7 700 7 l693
0 0 -700z"></path>
<path d="M560 6020 l0 -420 420 0 420 0 0 420 0 420 -420 0 -420 0 0 -420z"></path>
<path d="M2240 6720 l0 -280 140 0 140 0 0 -140 0 -140 140 0 140 0 0 140 0
140 -140 0 -141 0 3 138 3 137 275 0 275 0 3 -137 3 -138 139 0 140 0 0 280 0
280 -560 0 -560 0 0 -280z"></path>
<path d="M3912 6863 l3 -138 138 0 c75 0 137 3 137 8 0 4 0 66 0 137 l0 130
-140 0 -141 0 3 -137z"></path>
<path d="M5032 6023 l3 -978 983 -3 982 -2 0 980 0 980 -985 0 -985 0 2 -977z
m1673 -3 l0 -695 -689 -3 c-545 -2 -691 0 -698 10 -9 16 -11 1372 -1 1381 3 4
317 6 697 5 l691 -3 0 -695z"></path>
<path d="M5595 6428 c-3 -7 -4 -195 -3 -418 l3 -405 418 0 417 0 1 415 0 415
-416 3 c-327 2 -417 0 -420 -10z"></path>
<path d="M3637 6433 c-4 -3 -7 -66 -7 -140 l0 -133 -275 0 -275 0 0 -280 0
-280 -277 2 -278 3 -3 138 -3 137 -139 0 -140 0 2 -697 3 -698 278 -3 277 -2
0 280 0 280 140 0 140 0 0 280 0 281 138 -3 137 -3 3 -277 2 -278 135 0 135 0
2 278 3 277 278 5 278 5 -1 278 -1 277 141 0 140 0 0 140 0 141 -137 -3 -138
-3 -3 -138 -3 -138 -137 3 -137 3 -3 138 -3 137 -133 0 c-73 0 -136 -3 -139
-7z m-839 -1256 l3 -138 -138 3 -138 3 -3 124 c-1 69 0 131 2 138 4 11 35 13
138 11 l133 -3 3 -138z"></path>
<path d="M4477 5594 c-4 -4 -7 -193 -7 -421 l0 -414 -137 3 -138 3 -3 278 -2
277 -140 0 -140 0 0 -420 0 -421 -137 3 -138 3 -3 138 -3 137 -274 0 -275 0 0
-140 0 -139 138 -3 137 -3 0 -275 0 -275 -135 0 -135 0 -3 138 -3 137 -417 -2
-417 -3 -3 -137 -3 -138 -139 0 -140 0 0 140 0 140 -280 0 -280 0 0 140 0 140
280 0 281 0 -3 138 -3 137 -275 0 -275 0 -3 -137 -3 -138 -139 0 -140 0 0
-140 0 -141 -138 3 -137 3 -3 278 -2 277 -420 0 -420 0 0 -280 0 -279 138 -3
137 -3 0 -135 0 -135 -138 -3 -137 -3 0 -139 0 -139 138 -3 137 -3 3 -132 3
-133 -141 0 -140 0 0 -140 0 -140 280 0 280 0 2 273 3 272 135 0 135 0 5 -133
c3 -72 8 -132 13 -132 4 0 65 0 137 0 l129 0 3 133 3 132 135 0 135 0 3 -412
2 -413 -140 0 -139 0 -3 138 -3 137 -135 0 -135 0 -3 -137 -3 -138 -419 0
-420 0 0 -140 0 -140 548 0 c301 0 552 -4 559 -8 9 -5 13 -50 15 -141 l3 -133
545 1 c300 1 550 -2 557 -7 9 -5 13 -50 15 -140 l3 -133 418 -2 417 -2 0 142
0 141 128 0 c70 0 133 -3 140 -5 9 -4 12 -69 12 -279 l0 -273 -137 -3 -138 -3
-3 -138 -3 -137 -139 0 -139 0 -3 137 -3 138 -275 0 -275 0 0 -139 0 -138 278
1 277 2 0 -143 0 -143 137 1 138 2 3 141 3 141 117 0 c176 0 162 13 162 -149
l0 -136 135 0 135 0 0 703 0 702 -275 0 -276 0 3 138 3 137 138 3 137 3 0 139
0 140 -140 0 -140 0 2 273 3 272 272 3 273 2 2 278 3 277 138 3 137 3 0 139 0
140 140 0 140 0 2 -277 3 -278 274 -3 c198 -2 277 1 282 9 4 6 7 120 8 253 0
132 1 253 1 269 l0 27 135 0 134 0 3 -137 3 -138 138 -3 137 -3 0 -139 0 -139
-137 -3 -138 -3 -3 -273 -2 -272 -278 2 -277 3 0 133 0 132 -142 0 -143 0 0
-415 0 -414 -137 -3 -138 -3 -3 -136 c-2 -112 0 -138 12 -142 8 -3 71 -3 140
0 l126 6 0 139 0 138 140 0 140 0 0 135 c0 131 1 135 23 140 12 3 137 4 277 3
l255 -3 3 -137 3 -137 -138 -3 -138 -3 -3 -137 -3 -137 -137 -3 -137 -3 -3
-417 -2 -417 -138 -3 -137 -3 -3 -557 -2 -557 -138 -3 -137 -3 -3 -282 -2
-283 140 0 140 0 2 263 c1 144 2 271 2 282 1 18 9 20 96 23 52 2 114 0 138 -3
l42 -6 0 -280 0 -279 145 0 146 0 -1 258 c-1 141 -1 269 0 285 l0 27 119 0
c66 0 126 -3 135 -6 14 -5 16 -40 16 -285 l0 -279 140 0 140 0 0 134 c0 103 3
136 14 145 11 9 88 12 280 10 l266 -2 0 -143 0 -144 139 0 139 0 4 138 c2 75
2 140 0 145 -2 4 -63 7 -136 7 l-133 0 -7 46 c-12 87 -7 489 6 502 13 13 456
18 516 6 l31 -6 3 -137 c2 -101 6 -136 16 -135 6 1 134 2 282 3 l270 1 0 140
0 140 -139 0 -138 0 -7 60 c-4 33 -6 158 -5 278 l1 217 -138 0 -139 0 -3 -137
-3 -138 -133 0 -134 0 -7 50 c-4 28 -5 90 -3 138 l3 87 -136 3 -137 3 -6 31
c-3 17 -6 74 -6 128 0 73 4 101 14 110 10 8 55 11 142 9 l127 -2 -1 135 -1
136 32 6 c18 3 81 4 141 4 l109 -2 -1 132 c-1 93 2 133 11 139 14 9 186 13
235 6 l32 -5 0 -274 c0 -150 3 -274 8 -276 4 -2 69 -2 145 0 l137 4 0 279 0
279 -146 0 -146 0 3 138 3 137 -139 0 -140 0 -3 -137 -3 -137 -137 -3 -137 -3
-3 -138 -3 -137 -133 0 c-118 0 -135 2 -140 17 -4 10 -6 135 -5 278 l2 260
-134 3 c-91 2 -136 6 -141 15 -4 7 -8 194 -7 417 l0 405 -132 3 c-91 2 -136 6
-141 15 -9 14 -11 481 -2 514 6 22 11 23 141 25 l135 3 0 135 0 135 -141 3
-141 3 0 127 c0 70 4 133 8 139 6 10 78 13 281 15 l274 3 0 135 0 135 -559 5
-559 5 0 415 0 415 -136 3 c-74 1 -138 -1 -142 -4z m-3079 -1531 l-3 -138
-135 0 -135 0 -3 138 -3 137 141 0 141 0 -3 -137z m560 -280 l-3 -138 -135 0
-135 0 -3 124 c-1 69 0 131 2 138 4 10 39 13 141 13 l136 0 -3 -137z m837 -3
l0 -135 -275 0 -275 0 -3 138 -3 137 278 -2 278 -3 0 -135z m3 -692 l2 -278
-277 -2 -278 -3 -3 -137 -3 -138 -419 0 -420 0 0 140 0 140 280 0 280 0 0 140
0 140 -140 0 -140 0 0 133 c0 74 3 137 7 140 3 4 254 6 557 5 l551 -3 3 -277z
m282 -698 l0 -140 -140 0 -140 0 0 133 c0 74 3 137 7 140 3 4 66 7 140 7 l133
0 0 -140z m2488 -146 l22 -6 0 -414 0 -414 -415 0 -415 0 -2 373 c-2 385 -1
433 7 455 3 9 91 12 392 12 213 0 398 -3 411 -6z m-30 -1120 l52 -7 0 -273 0
-274 -274 0 -273 0 -7 38 c-10 60 -7 468 4 496 l10 26 217 0 c120 0 242 -3
271 -6z m-804 -280 c14 -5 16 -27 16 -140 l0 -134 -134 0 -133 0 -7 61 c-10
98 -7 194 6 207 13 13 222 18 252 6z"></path>
<path d="M5034 1957 c-2 -7 -3 -71 -2 -141 l3 -129 138 1 139 0 0 139 0 138
-136 3 c-106 2 -138 0 -142 -11z"></path>
<path d="M6437 4753 c-4 -3 -7 -129 -7 -280 l0 -274 -137 3 -138 3 -1 135 0
135 -142 3 -142 3 2 -418 3 -418 139 0 140 0 0 135 1 135 139 5 139 5 -2 138
-2 138 138 -3 138 -3 5 -135 5 -135 143 -3 142 -3 0 421 0 420 -278 0 c-153 0
-282 -3 -285 -7z"></path>
<path d="M6717 3633 c-4 -3 -7 -64 -7 -134 l0 -128 -137 -3 -138 -3 -3 -137
-3 -138 -277 -2 -277 -3 -3 -137 -3 -138 271 -1 c148 -1 275 -2 281 -3 7 -1
11 45 12 139 l2 140 115 3 c174 4 160 16 160 -143 l0 -135 145 0 145 0 0 415
0 415 -138 0 c-76 0 -142 -3 -145 -7z"></path>
<path d="M3637 3363 c-7 -7 -10 -267 -3 -274 2 -2 65 -3 140 -1 l136 3 0 140
0 139 -133 0 c-74 0 -137 -3 -140 -7z"></path>
<path d="M3917 2243 c-10 -9 -9 -551 1 -555 4 -2 67 -2 140 0 l132 3 0 280 0
279 -133 0 c-74 0 -137 -3 -140 -7z"></path>
<path d="M0 985 l0 -985 980 0 980 0 -2 982 -3 983 -977 3 -978 2 0 -985z
m1664 699 c14 -6 16 -77 16 -700 l0 -694 -700 0 -700 0 0 694 c0 546 3 695 13
699 18 8 1352 8 1371 1z"></path>
<path d="M562 990 l3 -421 415 0 415 0 0 418 0 418 -418 3 -417 2 2 -420z"></path>
<path d="M2247 844 c-4 -4 -7 -196 -7 -426 l0 -418 280 0 281 0 -3 143 -3 142
-135 5 -135 5 -5 275 -5 275 -131 3 c-71 1 -133 -1 -137 -4z"></path>
<path d="M2804 837 c-2 -7 -3 -71 -2 -142 l3 -128 120 2 c66 1 128 -1 138 -4
15 -6 17 -23 17 -144 l0 -136 115 4 c63 2 126 0 140 -3 l25 -6 0 -140 0 -140
135 0 135 0 0 285 0 284 -132 3 -133 3 -3 138 -3 137 -275 0 c-216 0 -276 -3
-280 -13z"></path>
<path d="M6717 283 c-4 -3 -7 -69 -7 -145 l0 -138 145 0 145 0 0 145 0 145
-138 0 c-76 0 -142 -3 -145 -7z"></path>
</g>
</svg>