<svg width="991" height="483" viewBox="0 0 991 483" fill="none" xmlns="http://www.w3.org/2000/svg">
<path d="M19.3177 379.702C9.65887 379.702 0 388.407 0 388.407V483H991V0C991 0 980.375 8.70568 970.716 8.70568C960.092 8.70568 960.092 13.3934 950.433 13.3934C939.808 13.3934 939.808 22.099 930.149 22.099C919.524 22.099 919.524 30.8047 909.865 30.8047C899.241 30.8047 899.241 39.5104 889.582 39.5104C878.957 39.5104 878.957 48.8858 869.298 48.8858C858.674 48.8858 858.674 52.9038 849.015 52.9038C838.39 52.9038 838.39 61.6094 828.731 61.6094C819.072 61.6094 819.072 70.9848 808.447 70.9848C798.789 70.9848 798.789 79.6905 788.164 79.6905C778.505 79.6905 778.505 88.3962 767.88 88.3962C758.221 88.3962 758.221 97.1018 747.596 97.1018C737.938 97.1018 737.938 101.79 727.313 101.79C717.654 101.79 717.654 105.808 707.029 105.808C697.37 105.808 697.37 110.495 686.746 110.495C677.087 110.495 677.087 119.201 666.462 119.201C656.803 119.201 656.803 127.907 647.144 127.907C636.519 127.907 636.519 136.612 626.861 136.612C616.236 136.612 616.236 141.3 606.577 141.3C595.952 141.3 595.952 150.006 586.293 150.006C575.669 150.006 575.669 154.693 566.01 154.693C555.385 154.693 555.385 163.399 545.726 163.399C535.101 163.399 535.101 172.105 525.443 172.105C514.818 172.105 514.818 180.81 505.159 180.81C495.5 180.81 495.5 189.516 484.875 189.516C475.216 189.516 475.216 194.204 464.592 194.204C454.933 194.204 454.933 202.909 444.308 202.909C434.649 202.909 434.649 211.615 424.024 211.615C414.366 211.615 414.366 220.99 403.741 220.99C394.082 220.99 394.082 229.696 383.457 229.696C373.798 229.696 373.798 238.402 363.173 238.402C353.515 238.402 353.515 247.107 342.89 247.107C333.231 247.107 333.231 255.813 323.572 255.813C312.947 255.813 312.947 260.501 303.289 260.501C292.664 260.501 292.664 273.894 283.005 273.894C272.38 273.894 272.38 282.6 262.721 282.6C252.096 282.6 252.096 291.306 242.438 291.306C231.813 291.306 231.813 295.993 222.154 295.993C211.529 295.993 211.529 304.699 201.87 304.699C191.246 304.699 191.246 308.717 181.587 308.717C170.962 308.717 170.962 322.11 161.303 322.11C151.644 322.11 151.644 326.798 141.02 326.798C131.361 326.798 131.361 330.816 120.736 330.816C111.077 330.816 111.077 344.209 100.452 344.209C90.7934 344.209 90.7934 352.915 80.1686 352.915C70.5098 352.915 70.5098 366.308 59.885 366.308C50.2261 366.308 50.2261 375.014 39.6014 375.014C29.9425 375.014 29.9425 379.702 19.3177 379.702Z" fill="url(#paint0_linear)" fill-opacity="0.2"/>
<defs>
<linearGradient id="paint0_linear" x1="495.5" y1="0" x2="495.5" y2="633.5" gradientUnits="userSpaceOnUse">
<stop stop-color="#FF6868"/>
<stop offset="1" stop-color="#FF6868" stop-opacity="0"/>
</linearGradient>
</defs>
</svg>
