<svg width="86" height="86" viewBox="0 0 86 86" fill="none" xmlns="http://www.w3.org/2000/svg">
<path d="M86 0H0V86H86V0Z" fill="#E9ECEF"/>
<path d="M8.17016 5.16003H5.16016V8.17004H8.17016V5.16003Z" fill="black"/>
<path d="M11.1799 5.16003H8.16992V8.17004H11.1799V5.16003Z" fill="black"/>
<path d="M14.1897 5.16003H11.1797V8.17004H14.1897V5.16003Z" fill="black"/>
<path d="M17.2004 5.16003H14.1904V8.17004H17.2004V5.16003Z" fill="black"/>
<path d="M20.2102 5.16003H17.2002V8.17004H20.2102V5.16003Z" fill="black"/>
<path d="M23.22 5.16003H20.21V8.17004H23.22V5.16003Z" fill="black"/>
<path d="M26.2297 5.16003H23.2197V8.17004H26.2297V5.16003Z" fill="black"/>
<path d="M38.2698 5.16003H35.2598V8.17004H38.2698V5.16003Z" fill="black"/>
<path d="M53.3205 5.16003H50.3105V8.17004H53.3205V5.16003Z" fill="black"/>
<path d="M62.3498 5.16003H59.3398V8.17004H62.3498V5.16003Z" fill="black"/>
<path d="M65.3596 5.16003H62.3496V8.17004H65.3596V5.16003Z" fill="black"/>
<path d="M68.3704 5.16003H65.3604V8.17004H68.3704V5.16003Z" fill="black"/>
<path d="M71.3801 5.16003H68.3701V8.17004H71.3801V5.16003Z" fill="black"/>
<path d="M74.3899 5.16003H71.3799V8.17004H74.3899V5.16003Z" fill="black"/>
<path d="M77.3997 5.16003H74.3896V8.17004H77.3997V5.16003Z" fill="black"/>
<path d="M80.4104 5.16003H77.4004V8.17004H80.4104V5.16003Z" fill="black"/>
<path d="M8.17016 8.16998H5.16016V11.18H8.17016V8.16998Z" fill="black"/>
<path d="M26.2297 8.16998H23.2197V11.18H26.2297V8.16998Z" fill="black"/>
<path d="M32.2502 8.16998H29.2402V11.18H32.2502V8.16998Z" fill="black"/>
<path d="M35.26 8.16998H32.25V11.18H35.26V8.16998Z" fill="black"/>
<path d="M38.2698 8.16998H35.2598V11.18H38.2698V8.16998Z" fill="black"/>
<path d="M50.3098 8.16998H47.2998V11.18H50.3098V8.16998Z" fill="black"/>
<path d="M53.3205 8.16998H50.3105V11.18H53.3205V8.16998Z" fill="black"/>
<path d="M56.3303 8.16998H53.3203V11.18H56.3303V8.16998Z" fill="black"/>
<path d="M62.3498 8.16998H59.3398V11.18H62.3498V8.16998Z" fill="black"/>
<path d="M80.4104 8.16998H77.4004V11.18H80.4104V8.16998Z" fill="black"/>
<path d="M8.17016 11.18H5.16016V14.19H8.17016V11.18Z" fill="black"/>
<path d="M14.1897 11.18H11.1797V14.19H14.1897V11.18Z" fill="black"/>
<path d="M17.2004 11.18H14.1904V14.19H17.2004V11.18Z" fill="black"/>
<path d="M20.2102 11.18H17.2002V14.19H20.2102V11.18Z" fill="black"/>
<path d="M26.2297 11.18H23.2197V14.19H26.2297V11.18Z" fill="black"/>
<path d="M32.2502 11.18H29.2402V14.19H32.2502V11.18Z" fill="black"/>
<path d="M56.3303 11.18H53.3203V14.19H56.3303V11.18Z" fill="black"/>
<path d="M62.3498 11.18H59.3398V14.19H62.3498V11.18Z" fill="black"/>
<path d="M68.3704 11.18H65.3604V14.19H68.3704V11.18Z" fill="black"/>
<path d="M71.3801 11.18H68.3701V14.19H71.3801V11.18Z" fill="black"/>
<path d="M74.3899 11.18H71.3799V14.19H74.3899V11.18Z" fill="black"/>
<path d="M80.4104 11.18H77.4004V14.19H80.4104V11.18Z" fill="black"/>
<path d="M8.17016 14.19H5.16016V17.2H8.17016V14.19Z" fill="black"/>
<path d="M14.1897 14.19H11.1797V17.2H14.1897V14.19Z" fill="black"/>
<path d="M17.2004 14.19H14.1904V17.2H17.2004V14.19Z" fill="black"/>
<path d="M20.2102 14.19H17.2002V17.2H20.2102V14.19Z" fill="black"/>
<path d="M26.2297 14.19H23.2197V17.2H26.2297V14.19Z" fill="black"/>
<path d="M35.26 14.19H32.25V17.2H35.26V14.19Z" fill="black"/>
<path d="M44.2903 14.19H41.2803V17.2H44.2903V14.19Z" fill="black"/>
<path d="M50.3098 14.19H47.2998V17.2H50.3098V14.19Z" fill="black"/>
<path d="M53.3205 14.19H50.3105V17.2H53.3205V14.19Z" fill="black"/>
<path d="M62.3498 14.19H59.3398V17.2H62.3498V14.19Z" fill="black"/>
<path d="M68.3704 14.19H65.3604V17.2H68.3704V14.19Z" fill="black"/>
<path d="M71.3801 14.19H68.3701V17.2H71.3801V14.19Z" fill="black"/>
<path d="M74.3899 14.19H71.3799V17.2H74.3899V14.19Z" fill="black"/>
<path d="M80.4104 14.19H77.4004V17.2H80.4104V14.19Z" fill="black"/>
<path d="M8.17016 17.2H5.16016V20.21H8.17016V17.2Z" fill="black"/>
<path d="M14.1897 17.2H11.1797V20.21H14.1897V17.2Z" fill="black"/>
<path d="M17.2004 17.2H14.1904V20.21H17.2004V17.2Z" fill="black"/>
<path d="M20.2102 17.2H17.2002V20.21H20.2102V17.2Z" fill="black"/>
<path d="M26.2297 17.2H23.2197V20.21H26.2297V17.2Z" fill="black"/>
<path d="M32.2502 17.2H29.2402V20.21H32.2502V17.2Z" fill="black"/>
<path d="M35.26 17.2H32.25V20.21H35.26V17.2Z" fill="black"/>
<path d="M38.2698 17.2H35.2598V20.21H38.2698V17.2Z" fill="black"/>
<path d="M44.2903 17.2H41.2803V20.21H44.2903V17.2Z" fill="black"/>
<path d="M50.3098 17.2H47.2998V20.21H50.3098V17.2Z" fill="black"/>
<path d="M53.3205 17.2H50.3105V20.21H53.3205V17.2Z" fill="black"/>
<path d="M62.3498 17.2H59.3398V20.21H62.3498V17.2Z" fill="black"/>
<path d="M68.3704 17.2H65.3604V20.21H68.3704V17.2Z" fill="black"/>
<path d="M71.3801 17.2H68.3701V20.21H71.3801V17.2Z" fill="black"/>
<path d="M74.3899 17.2H71.3799V20.21H74.3899V17.2Z" fill="black"/>
<path d="M80.4104 17.2H77.4004V20.21H80.4104V17.2Z" fill="black"/>
<path d="M8.17016 20.21H5.16016V23.22H8.17016V20.21Z" fill="black"/>
<path d="M26.2297 20.21H23.2197V23.22H26.2297V20.21Z" fill="black"/>
<path d="M32.2502 20.21H29.2402V23.22H32.2502V20.21Z" fill="black"/>
<path d="M38.2698 20.21H35.2598V23.22H38.2698V20.21Z" fill="black"/>
<path d="M44.2903 20.21H41.2803V23.22H44.2903V20.21Z" fill="black"/>
<path d="M47.3 20.21H44.29V23.22H47.3V20.21Z" fill="black"/>
<path d="M50.3098 20.21H47.2998V23.22H50.3098V20.21Z" fill="black"/>
<path d="M53.3205 20.21H50.3105V23.22H53.3205V20.21Z" fill="black"/>
<path d="M62.3498 20.21H59.3398V23.22H62.3498V20.21Z" fill="black"/>
<path d="M80.4104 20.21H77.4004V23.22H80.4104V20.21Z" fill="black"/>
<path d="M8.17016 23.22H5.16016V26.23H8.17016V23.22Z" fill="black"/>
<path d="M11.1799 23.22H8.16992V26.23H11.1799V23.22Z" fill="black"/>
<path d="M14.1897 23.22H11.1797V26.23H14.1897V23.22Z" fill="black"/>
<path d="M17.2004 23.22H14.1904V26.23H17.2004V23.22Z" fill="black"/>
<path d="M20.2102 23.22H17.2002V26.23H20.2102V23.22Z" fill="black"/>
<path d="M23.22 23.22H20.21V26.23H23.22V23.22Z" fill="black"/>
<path d="M26.2297 23.22H23.2197V26.23H26.2297V23.22Z" fill="black"/>
<path d="M32.2502 23.22H29.2402V26.23H32.2502V23.22Z" fill="black"/>
<path d="M38.2698 23.22H35.2598V26.23H38.2698V23.22Z" fill="black"/>
<path d="M44.2903 23.22H41.2803V26.23H44.2903V23.22Z" fill="black"/>
<path d="M50.3098 23.22H47.2998V26.23H50.3098V23.22Z" fill="black"/>
<path d="M56.3303 23.22H53.3203V26.23H56.3303V23.22Z" fill="black"/>
<path d="M62.3498 23.22H59.3398V26.23H62.3498V23.22Z" fill="black"/>
<path d="M65.3596 23.22H62.3496V26.23H65.3596V23.22Z" fill="black"/>
<path d="M68.3704 23.22H65.3604V26.23H68.3704V23.22Z" fill="black"/>
<path d="M71.3801 23.22H68.3701V26.23H71.3801V23.22Z" fill="black"/>
<path d="M74.3899 23.22H71.3799V26.23H74.3899V23.22Z" fill="black"/>
<path d="M77.3997 23.22H74.3896V26.23H77.3997V23.22Z" fill="black"/>
<path d="M80.4104 23.22H77.4004V26.23H80.4104V23.22Z" fill="black"/>
<path d="M32.2502 26.23H29.2402V29.24H32.2502V26.23Z" fill="black"/>
<path d="M38.2698 26.23H35.2598V29.24H38.2698V26.23Z" fill="black"/>
<path d="M41.2795 26.23H38.2695V29.24H41.2795V26.23Z" fill="black"/>
<path d="M8.17016 29.24H5.16016V32.25H8.17016V29.24Z" fill="black"/>
<path d="M11.1799 29.24H8.16992V32.25H11.1799V29.24Z" fill="black"/>
<path d="M17.2004 29.24H14.1904V32.25H17.2004V29.24Z" fill="black"/>
<path d="M26.2297 29.24H23.2197V32.25H26.2297V29.24Z" fill="black"/>
<path d="M29.2405 29.24H26.2305V32.25H29.2405V29.24Z" fill="black"/>
<path d="M41.2795 29.24H38.2695V32.25H41.2795V29.24Z" fill="black"/>
<path d="M44.2903 29.24H41.2803V32.25H44.2903V29.24Z" fill="black"/>
<path d="M47.3 29.24H44.29V32.25H47.3V29.24Z" fill="black"/>
<path d="M50.3098 29.24H47.2998V32.25H50.3098V29.24Z" fill="black"/>
<path d="M53.3205 29.24H50.3105V32.25H53.3205V29.24Z" fill="black"/>
<path d="M56.3303 29.24H53.3203V32.25H56.3303V29.24Z" fill="black"/>
<path d="M62.3498 29.24H59.3398V32.25H62.3498V29.24Z" fill="black"/>
<path d="M65.3596 29.24H62.3496V32.25H65.3596V29.24Z" fill="black"/>
<path d="M68.3704 29.24H65.3604V32.25H68.3704V29.24Z" fill="black"/>
<path d="M74.3899 29.24H71.3799V32.25H74.3899V29.24Z" fill="black"/>
<path d="M77.3997 29.24H74.3896V32.25H77.3997V29.24Z" fill="black"/>
<path d="M11.1799 32.25H8.16992V35.26H11.1799V32.25Z" fill="black"/>
<path d="M14.1897 32.25H11.1797V35.26H14.1897V32.25Z" fill="black"/>
<path d="M23.22 32.25H20.21V35.26H23.22V32.25Z" fill="black"/>
<path d="M29.2405 32.25H26.2305V35.26H29.2405V32.25Z" fill="black"/>
<path d="M35.26 32.25H32.25V35.26H35.26V32.25Z" fill="black"/>
<path d="M41.2795 32.25H38.2695V35.26H41.2795V32.25Z" fill="black"/>
<path d="M44.2903 32.25H41.2803V35.26H44.2903V32.25Z" fill="black"/>
<path d="M56.3303 32.25H53.3203V35.26H56.3303V32.25Z" fill="black"/>
<path d="M59.3401 32.25H56.3301V35.26H59.3401V32.25Z" fill="black"/>
<path d="M62.3498 32.25H59.3398V35.26H62.3498V32.25Z" fill="black"/>
<path d="M71.3801 32.25H68.3701V35.26H71.3801V32.25Z" fill="black"/>
<path d="M74.3899 32.25H71.3799V35.26H74.3899V32.25Z" fill="black"/>
<path d="M80.4104 32.25H77.4004V35.26H80.4104V32.25Z" fill="black"/>
<path d="M8.17016 35.26H5.16016V38.27H8.17016V35.26Z" fill="black"/>
<path d="M14.1897 35.26H11.1797V38.27H14.1897V35.26Z" fill="black"/>
<path d="M17.2004 35.26H14.1904V38.27H17.2004V35.26Z" fill="black"/>
<path d="M20.2102 35.26H17.2002V38.27H20.2102V35.26Z" fill="black"/>
<path d="M26.2297 35.26H23.2197V38.27H26.2297V35.26Z" fill="black"/>
<path d="M32.2502 35.26H29.2402V38.27H32.2502V35.26Z" fill="black"/>
<path d="M41.2795 35.26H38.2695V38.27H41.2795V35.26Z" fill="black"/>
<path d="M44.2903 35.26H41.2803V38.27H44.2903V35.26Z" fill="black"/>
<path d="M47.3 35.26H44.29V38.27H47.3V35.26Z" fill="black"/>
<path d="M50.3098 35.26H47.2998V38.27H50.3098V35.26Z" fill="black"/>
<path d="M56.3303 35.26H53.3203V38.27H56.3303V35.26Z" fill="black"/>
<path d="M59.3401 35.26H56.3301V38.27H59.3401V35.26Z" fill="black"/>
<path d="M68.3704 35.26H65.3604V38.27H68.3704V35.26Z" fill="black"/>
<path d="M71.3801 35.26H68.3701V38.27H71.3801V35.26Z" fill="black"/>
<path d="M77.3997 35.26H74.3896V38.27H77.3997V35.26Z" fill="black"/>
<path d="M80.4104 35.26H77.4004V38.27H80.4104V35.26Z" fill="black"/>
<path d="M11.1799 38.27H8.16992V41.28H11.1799V38.27Z" fill="black"/>
<path d="M17.2004 38.27H14.1904V41.28H17.2004V38.27Z" fill="black"/>
<path d="M29.2405 38.27H26.2305V41.28H29.2405V38.27Z" fill="black"/>
<path d="M32.2502 38.27H29.2402V41.28H32.2502V38.27Z" fill="black"/>
<path d="M35.26 38.27H32.25V41.28H35.26V38.27Z" fill="black"/>
<path d="M38.2698 38.27H35.2598V41.28H38.2698V38.27Z" fill="black"/>
<path d="M41.2795 38.27H38.2695V41.28H41.2795V38.27Z" fill="black"/>
<path d="M44.2903 38.27H41.2803V41.28H44.2903V38.27Z" fill="black"/>
<path d="M47.3 38.27H44.29V41.28H47.3V38.27Z" fill="black"/>
<path d="M53.3205 38.27H50.3105V41.28H53.3205V38.27Z" fill="black"/>
<path d="M59.3401 38.27H56.3301V41.28H59.3401V38.27Z" fill="black"/>
<path d="M62.3498 38.27H59.3398V41.28H62.3498V38.27Z" fill="black"/>
<path d="M65.3596 38.27H62.3496V41.28H65.3596V38.27Z" fill="black"/>
<path d="M71.3801 38.27H68.3701V41.28H71.3801V38.27Z" fill="black"/>
<path d="M20.2102 41.28H17.2002V44.29H20.2102V41.28Z" fill="black"/>
<path d="M26.2297 41.28H23.2197V44.29H26.2297V41.28Z" fill="black"/>
<path d="M29.2405 41.28H26.2305V44.29H29.2405V41.28Z" fill="black"/>
<path d="M32.2502 41.28H29.2402V44.29H32.2502V41.28Z" fill="black"/>
<path d="M38.2698 41.28H35.2598V44.29H38.2698V41.28Z" fill="black"/>
<path d="M41.2795 41.28H38.2695V44.29H41.2795V41.28Z" fill="black"/>
<path d="M44.2903 41.28H41.2803V44.29H44.2903V41.28Z" fill="black"/>
<path d="M47.3 41.28H44.29V44.29H47.3V41.28Z" fill="black"/>
<path d="M56.3303 41.28H53.3203V44.29H56.3303V41.28Z" fill="black"/>
<path d="M59.3401 41.28H56.3301V44.29H59.3401V41.28Z" fill="black"/>
<path d="M62.3498 41.28H59.3398V44.29H62.3498V41.28Z" fill="black"/>
<path d="M65.3596 41.28H62.3496V44.29H65.3596V41.28Z" fill="black"/>
<path d="M11.1799 44.29H8.16992V47.3H11.1799V44.29Z" fill="black"/>
<path d="M17.2004 44.29H14.1904V47.3H17.2004V44.29Z" fill="black"/>
<path d="M20.2102 44.29H17.2002V47.3H20.2102V44.29Z" fill="black"/>
<path d="M32.2502 44.29H29.2402V47.3H32.2502V44.29Z" fill="black"/>
<path d="M35.26 44.29H32.25V47.3H35.26V44.29Z" fill="black"/>
<path d="M41.2795 44.29H38.2695V47.3H41.2795V44.29Z" fill="black"/>
<path d="M50.3098 44.29H47.2998V47.3H50.3098V44.29Z" fill="black"/>
<path d="M62.3498 44.29H59.3398V47.3H62.3498V44.29Z" fill="black"/>
<path d="M65.3596 44.29H62.3496V47.3H65.3596V44.29Z" fill="black"/>
<path d="M71.3801 44.29H68.3701V47.3H71.3801V44.29Z" fill="black"/>
<path d="M74.3899 44.29H71.3799V47.3H74.3899V44.29Z" fill="black"/>
<path d="M77.3997 44.29H74.3896V47.3H77.3997V44.29Z" fill="black"/>
<path d="M80.4104 44.29H77.4004V47.3H80.4104V44.29Z" fill="black"/>
<path d="M8.17016 47.3H5.16016V50.31H8.17016V47.3Z" fill="black"/>
<path d="M14.1897 47.3H11.1797V50.31H14.1897V47.3Z" fill="black"/>
<path d="M26.2297 47.3H23.2197V50.31H26.2297V47.3Z" fill="black"/>
<path d="M29.2405 47.3H26.2305V50.31H29.2405V47.3Z" fill="black"/>
<path d="M35.26 47.3H32.25V50.31H35.26V47.3Z" fill="black"/>
<path d="M41.2795 47.3H38.2695V50.31H41.2795V47.3Z" fill="black"/>
<path d="M47.3 47.3H44.29V50.31H47.3V47.3Z" fill="black"/>
<path d="M62.3498 47.3H59.3398V50.31H62.3498V47.3Z" fill="black"/>
<path d="M74.3899 47.3H71.3799V50.31H74.3899V47.3Z" fill="black"/>
<path d="M80.4104 47.3H77.4004V50.31H80.4104V47.3Z" fill="black"/>
<path d="M11.1799 50.31H8.16992V53.32H11.1799V50.31Z" fill="black"/>
<path d="M20.2102 50.31H17.2002V53.32H20.2102V50.31Z" fill="black"/>
<path d="M23.22 50.31H20.21V53.32H23.22V50.31Z" fill="black"/>
<path d="M32.2502 50.31H29.2402V53.32H32.2502V50.31Z" fill="black"/>
<path d="M35.26 50.31H32.25V53.32H35.26V50.31Z" fill="black"/>
<path d="M44.2903 50.31H41.2803V53.32H44.2903V50.31Z" fill="black"/>
<path d="M47.3 50.31H44.29V53.32H47.3V50.31Z" fill="black"/>
<path d="M50.3098 50.31H47.2998V53.32H50.3098V50.31Z" fill="black"/>
<path d="M65.3596 50.31H62.3496V53.32H65.3596V50.31Z" fill="black"/>
<path d="M80.4104 50.31H77.4004V53.32H80.4104V50.31Z" fill="black"/>
<path d="M8.17016 53.32H5.16016V56.33H8.17016V53.32Z" fill="black"/>
<path d="M11.1799 53.32H8.16992V56.33H11.1799V53.32Z" fill="black"/>
<path d="M17.2004 53.32H14.1904V56.33H17.2004V53.32Z" fill="black"/>
<path d="M20.2102 53.32H17.2002V56.33H20.2102V53.32Z" fill="black"/>
<path d="M23.22 53.32H20.21V56.33H23.22V53.32Z" fill="black"/>
<path d="M26.2297 53.32H23.2197V56.33H26.2297V53.32Z" fill="black"/>
<path d="M29.2405 53.32H26.2305V56.33H29.2405V53.32Z" fill="black"/>
<path d="M38.2698 53.32H35.2598V56.33H38.2698V53.32Z" fill="black"/>
<path d="M41.2795 53.32H38.2695V56.33H41.2795V53.32Z" fill="black"/>
<path d="M44.2903 53.32H41.2803V56.33H44.2903V53.32Z" fill="black"/>
<path d="M50.3098 53.32H47.2998V56.33H50.3098V53.32Z" fill="black"/>
<path d="M56.3303 53.32H53.3203V56.33H56.3303V53.32Z" fill="black"/>
<path d="M59.3401 53.32H56.3301V56.33H59.3401V53.32Z" fill="black"/>
<path d="M62.3498 53.32H59.3398V56.33H62.3498V53.32Z" fill="black"/>
<path d="M65.3596 53.32H62.3496V56.33H65.3596V53.32Z" fill="black"/>
<path d="M68.3704 53.32H65.3604V56.33H68.3704V53.32Z" fill="black"/>
<path d="M74.3899 53.32H71.3799V56.33H74.3899V53.32Z" fill="black"/>
<path d="M77.3997 53.32H74.3896V56.33H77.3997V53.32Z" fill="black"/>
<path d="M80.4104 53.32H77.4004V56.33H80.4104V53.32Z" fill="black"/>
<path d="M32.2502 56.33H29.2402V59.34H32.2502V56.33Z" fill="black"/>
<path d="M38.2698 56.33H35.2598V59.34H38.2698V56.33Z" fill="black"/>
<path d="M41.2795 56.33H38.2695V59.34H41.2795V56.33Z" fill="black"/>
<path d="M44.2903 56.33H41.2803V59.34H44.2903V56.33Z" fill="black"/>
<path d="M47.3 56.33H44.29V59.34H47.3V56.33Z" fill="black"/>
<path d="M50.3098 56.33H47.2998V59.34H50.3098V56.33Z" fill="black"/>
<path d="M53.3205 56.33H50.3105V59.34H53.3205V56.33Z" fill="black"/>
<path d="M56.3303 56.33H53.3203V59.34H56.3303V56.33Z" fill="black"/>
<path d="M68.3704 56.33H65.3604V59.34H68.3704V56.33Z" fill="black"/>
<path d="M77.3997 56.33H74.3896V59.34H77.3997V56.33Z" fill="black"/>
<path d="M80.4104 56.33H77.4004V59.34H80.4104V56.33Z" fill="black"/>
<path d="M8.17016 59.34H5.16016V62.35H8.17016V59.34Z" fill="black"/>
<path d="M11.1799 59.34H8.16992V62.35H11.1799V59.34Z" fill="black"/>
<path d="M14.1897 59.34H11.1797V62.35H14.1897V59.34Z" fill="black"/>
<path d="M17.2004 59.34H14.1904V62.35H17.2004V59.34Z" fill="black"/>
<path d="M20.2102 59.34H17.2002V62.35H20.2102V59.34Z" fill="black"/>
<path d="M23.22 59.34H20.21V62.35H23.22V59.34Z" fill="black"/>
<path d="M26.2297 59.34H23.2197V62.35H26.2297V59.34Z" fill="black"/>
<path d="M32.2502 59.34H29.2402V62.35H32.2502V59.34Z" fill="black"/>
<path d="M35.26 59.34H32.25V62.35H35.26V59.34Z" fill="black"/>
<path d="M38.2698 59.34H35.2598V62.35H38.2698V59.34Z" fill="black"/>
<path d="M50.3098 59.34H47.2998V62.35H50.3098V59.34Z" fill="black"/>
<path d="M53.3205 59.34H50.3105V62.35H53.3205V59.34Z" fill="black"/>
<path d="M56.3303 59.34H53.3203V62.35H56.3303V59.34Z" fill="black"/>
<path d="M62.3498 59.34H59.3398V62.35H62.3498V59.34Z" fill="black"/>
<path d="M68.3704 59.34H65.3604V62.35H68.3704V59.34Z" fill="black"/>
<path d="M74.3899 59.34H71.3799V62.35H74.3899V59.34Z" fill="black"/>
<path d="M77.3997 59.34H74.3896V62.35H77.3997V59.34Z" fill="black"/>
<path d="M80.4104 59.34H77.4004V62.35H80.4104V59.34Z" fill="black"/>
<path d="M8.17016 62.35H5.16016V65.36H8.17016V62.35Z" fill="black"/>
<path d="M26.2297 62.35H23.2197V65.36H26.2297V62.35Z" fill="black"/>
<path d="M35.26 62.35H32.25V65.36H35.26V62.35Z" fill="black"/>
<path d="M41.2795 62.35H38.2695V65.36H41.2795V62.35Z" fill="black"/>
<path d="M56.3303 62.35H53.3203V65.36H56.3303V62.35Z" fill="black"/>
<path d="M68.3704 62.35H65.3604V65.36H68.3704V62.35Z" fill="black"/>
<path d="M74.3899 62.35H71.3799V65.36H74.3899V62.35Z" fill="black"/>
<path d="M77.3997 62.35H74.3896V65.36H77.3997V62.35Z" fill="black"/>
<path d="M80.4104 62.35H77.4004V65.36H80.4104V62.35Z" fill="black"/>
<path d="M8.17016 65.36H5.16016V68.37H8.17016V65.36Z" fill="black"/>
<path d="M14.1897 65.36H11.1797V68.37H14.1897V65.36Z" fill="black"/>
<path d="M17.2004 65.36H14.1904V68.37H17.2004V65.36Z" fill="black"/>
<path d="M20.2102 65.36H17.2002V68.37H20.2102V65.36Z" fill="black"/>
<path d="M26.2297 65.36H23.2197V68.37H26.2297V65.36Z" fill="black"/>
<path d="M35.26 65.36H32.25V68.37H35.26V65.36Z" fill="black"/>
<path d="M38.2698 65.36H35.2598V68.37H38.2698V65.36Z" fill="black"/>
<path d="M41.2795 65.36H38.2695V68.37H41.2795V65.36Z" fill="black"/>
<path d="M44.2903 65.36H41.2803V68.37H44.2903V65.36Z" fill="black"/>
<path d="M47.3 65.36H44.29V68.37H47.3V65.36Z" fill="black"/>
<path d="M50.3098 65.36H47.2998V68.37H50.3098V65.36Z" fill="black"/>
<path d="M56.3303 65.36H53.3203V68.37H56.3303V65.36Z" fill="black"/>
<path d="M59.3401 65.36H56.3301V68.37H59.3401V65.36Z" fill="black"/>
<path d="M62.3498 65.36H59.3398V68.37H62.3498V65.36Z" fill="black"/>
<path d="M65.3596 65.36H62.3496V68.37H65.3596V65.36Z" fill="black"/>
<path d="M68.3704 65.36H65.3604V68.37H68.3704V65.36Z" fill="black"/>
<path d="M77.3997 65.36H74.3896V68.37H77.3997V65.36Z" fill="black"/>
<path d="M8.17016 68.37H5.16016V71.38H8.17016V68.37Z" fill="black"/>
<path d="M14.1897 68.37H11.1797V71.38H14.1897V68.37Z" fill="black"/>
<path d="M17.2004 68.37H14.1904V71.38H17.2004V68.37Z" fill="black"/>
<path d="M20.2102 68.37H17.2002V71.38H20.2102V68.37Z" fill="black"/>
<path d="M26.2297 68.37H23.2197V71.38H26.2297V68.37Z" fill="black"/>
<path d="M32.2502 68.37H29.2402V71.38H32.2502V68.37Z" fill="black"/>
<path d="M44.2903 68.37H41.2803V71.38H44.2903V68.37Z" fill="black"/>
<path d="M56.3303 68.37H53.3203V71.38H56.3303V68.37Z" fill="black"/>
<path d="M59.3401 68.37H56.3301V71.38H59.3401V68.37Z" fill="black"/>
<path d="M65.3596 68.37H62.3496V71.38H65.3596V68.37Z" fill="black"/>
<path d="M68.3704 68.37H65.3604V71.38H68.3704V68.37Z" fill="black"/>
<path d="M71.3801 68.37H68.3701V71.38H71.3801V68.37Z" fill="black"/>
<path d="M74.3899 68.37H71.3799V71.38H74.3899V68.37Z" fill="black"/>
<path d="M8.17016 71.38H5.16016V74.39H8.17016V71.38Z" fill="black"/>
<path d="M14.1897 71.38H11.1797V74.39H14.1897V71.38Z" fill="black"/>
<path d="M17.2004 71.38H14.1904V74.39H17.2004V71.38Z" fill="black"/>
<path d="M20.2102 71.38H17.2002V74.39H20.2102V71.38Z" fill="black"/>
<path d="M26.2297 71.38H23.2197V74.39H26.2297V71.38Z" fill="black"/>
<path d="M35.26 71.38H32.25V74.39H35.26V71.38Z" fill="black"/>
<path d="M38.2698 71.38H35.2598V74.39H38.2698V71.38Z" fill="black"/>
<path d="M47.3 71.38H44.29V74.39H47.3V71.38Z" fill="black"/>
<path d="M65.3596 71.38H62.3496V74.39H65.3596V71.38Z" fill="black"/>
<path d="M68.3704 71.38H65.3604V74.39H68.3704V71.38Z" fill="black"/>
<path d="M71.3801 71.38H68.3701V74.39H71.3801V71.38Z" fill="black"/>
<path d="M80.4104 71.38H77.4004V74.39H80.4104V71.38Z" fill="black"/>
<path d="M8.17016 74.39H5.16016V77.4H8.17016V74.39Z" fill="black"/>
<path d="M26.2297 74.39H23.2197V77.4H26.2297V74.39Z" fill="black"/>
<path d="M32.2502 74.39H29.2402V77.4H32.2502V74.39Z" fill="black"/>
<path d="M38.2698 74.39H35.2598V77.4H38.2698V74.39Z" fill="black"/>
<path d="M44.2903 74.39H41.2803V77.4H44.2903V74.39Z" fill="black"/>
<path d="M47.3 74.39H44.29V77.4H47.3V74.39Z" fill="black"/>
<path d="M50.3098 74.39H47.2998V77.4H50.3098V74.39Z" fill="black"/>
<path d="M56.3303 74.39H53.3203V77.4H56.3303V74.39Z" fill="black"/>
<path d="M65.3596 74.39H62.3496V77.4H65.3596V74.39Z" fill="black"/>
<path d="M68.3704 74.39H65.3604V77.4H68.3704V74.39Z" fill="black"/>
<path d="M8.17016 77.4H5.16016V80.41H8.17016V77.4Z" fill="black"/>
<path d="M11.1799 77.4H8.16992V80.41H11.1799V77.4Z" fill="black"/>
<path d="M14.1897 77.4H11.1797V80.41H14.1897V77.4Z" fill="black"/>
<path d="M17.2004 77.4H14.1904V80.41H17.2004V77.4Z" fill="black"/>
<path d="M20.2102 77.4H17.2002V80.41H20.2102V77.4Z" fill="black"/>
<path d="M23.22 77.4H20.21V80.41H23.22V77.4Z" fill="black"/>
<path d="M26.2297 77.4H23.2197V80.41H26.2297V77.4Z" fill="black"/>
<path d="M32.2502 77.4H29.2402V80.41H32.2502V77.4Z" fill="black"/>
<path d="M38.2698 77.4H35.2598V80.41H38.2698V77.4Z" fill="black"/>
<path d="M41.2795 77.4H38.2695V80.41H41.2795V77.4Z" fill="black"/>
<path d="M44.2903 77.4H41.2803V80.41H44.2903V77.4Z" fill="black"/>
<path d="M47.3 77.4H44.29V80.41H47.3V77.4Z" fill="black"/>
<path d="M53.3205 77.4H50.3105V80.41H53.3205V77.4Z" fill="black"/>
<path d="M56.3303 77.4H53.3203V80.41H56.3303V77.4Z" fill="black"/>
<path d="M62.3498 77.4H59.3398V80.41H62.3498V77.4Z" fill="black"/>
<path d="M65.3596 77.4H62.3496V80.41H65.3596V77.4Z" fill="black"/>
<path d="M68.3704 77.4H65.3604V80.41H68.3704V77.4Z" fill="black"/>
<path d="M77.3997 77.4H74.3896V80.41H77.3997V77.4Z" fill="black"/>
<path d="M80.4104 77.4H77.4004V80.41H80.4104V77.4Z" fill="black"/>
</svg>
