<svg width="60" height="23" viewBox="0 0 60 23" fill="none" xmlns="http://www.w3.org/2000/svg">
<path d="M48.9772 7.87663V9.75665H58.4819C59.3244 9.75665 60 10.4371 60 11.2742C60 12.1091 59.3244 12.7929 58.4819 12.7929H48.9772V14.6621C48.9772 17.3765 46.7715 19.5745 44.0674 19.5745L14.4876 19.5767V21.0282C14.4876 21.8631 13.8066 22.5463 12.9695 22.5463C12.1297 22.5463 11.4514 21.8631 11.4514 21.0282L11.4541 12.7864L3.03622 12.7923V17.2703C3.03622 18.1052 2.35681 18.7884 1.51811 18.7884C0.678869 18.7884 0 18.1052 0 17.2703L0.00379256 5.28088C0.00379256 4.44598 0.682662 3.76332 1.5219 3.76332C2.35898 3.76332 3.03947 4.44598 3.03947 5.28088V9.75936L11.4573 9.7534L11.4606 1.51758C11.4606 0.681587 12.1411 9.53674e-06 12.9787 9.53674e-06C13.8158 9.53674e-06 14.4963 0.681587 14.4963 1.51758V2.97176H44.0804C46.777 2.9685 48.9772 5.17144 48.9772 7.87663ZM14.4838 16.547L44.0642 16.5443C45.099 16.5443 45.9388 15.7066 45.9388 14.6675L45.9442 7.88529C45.9442 6.84776 45.105 6.01068 44.0701 6.01068H38.2301V10.4458C38.2301 11.2834 37.5469 11.9634 36.712 11.9634C35.8771 11.9634 35.1945 11.2834 35.1945 10.4458V6.01068H32.1523V10.4458C32.1523 11.2834 31.4718 11.9634 30.6347 11.9634C29.7971 11.9634 29.1166 11.2834 29.1166 10.4458V6.01068H26.0809V10.4458C26.0809 11.2834 25.4004 11.9634 24.5628 11.9634C23.7247 11.9634 23.0447 11.2834 23.0447 10.4458V6.01068H14.4876L14.4838 16.547Z" fill="#343A40"/>
</svg>
