<svg width="42" height="48" viewBox="0 0 42 48" fill="none" xmlns="http://www.w3.org/2000/svg">
<path d="M18 2.39668C18 1.07303 19.0757 -0.0123974 20.3928 0.119567C23.5929 0.440216 26.7046 1.40179 29.539 2.95594C33.0758 4.89525 36.0667 7.6947 38.2355 11.0956C40.4043 14.4965 41.681 18.3892 41.9475 22.414C42.2141 26.4388 41.4619 30.4659 39.7606 34.1231C38.0592 37.7803 35.4636 40.9498 32.2134 43.3386C28.9632 45.7274 25.1634 47.2585 21.165 47.7904C17.1667 48.3223 13.0987 47.8379 9.33703 46.382C6.32247 45.2152 3.58253 43.4546 1.27578 41.2134C0.326429 40.291 0.46371 38.769 1.47614 37.9164C2.48857 37.0637 3.99139 37.2063 4.96344 38.1047C6.73486 39.742 8.80436 41.0359 11.0672 41.9118C14.0776 43.0769 17.3331 43.4646 20.5329 43.0389C23.7327 42.6132 26.7736 41.3879 29.3746 39.4762C31.9757 37.5645 34.0529 35.0281 35.4145 32.1013C36.776 29.1745 37.378 25.9517 37.1646 22.7308C36.9513 19.5098 35.9297 16.3946 34.194 13.6729C32.4584 10.9513 30.0648 8.71093 27.2344 7.15894C25.1067 5.99232 22.7839 5.24294 20.3905 4.94271C19.0771 4.77796 18 3.72034 18 2.39668Z" fill="#E65E5E"/>
</svg>
