<svg width="995" height="392" viewBox="0 0 995 392" fill="none" xmlns="http://www.w3.org/2000/svg">
<path d="M2 390C2 390 11.6589 381.303 21.3177 381.303C31.9425 381.303 31.9425 376.621 41.6014 376.621C52.2261 376.621 52.2261 367.924 61.885 367.924C72.5097 367.924 72.5097 354.545 82.1686 354.545C92.7934 354.545 92.7934 345.848 102.452 345.848C113.077 345.848 113.077 332.469 122.736 332.469C133.361 332.469 133.361 328.455 143.019 328.455C153.644 328.455 153.644 323.772 163.303 323.772C172.962 323.772 172.962 310.393 183.587 310.393C193.246 310.393 193.246 306.379 203.87 306.379C213.529 306.379 213.529 297.683 224.154 297.683C233.813 297.683 233.813 293 244.438 293C254.096 293 254.096 284.303 264.721 284.303C274.38 284.303 274.38 275.607 285.005 275.607C294.664 275.607 294.664 262.228 305.289 262.228C314.947 262.228 314.947 257.545 325.572 257.545C335.231 257.545 335.231 248.848 344.89 248.848C355.515 248.848 355.515 240.152 365.173 240.152C375.798 240.152 375.798 231.455 385.457 231.455C396.082 231.455 396.082 222.759 405.741 222.759C416.366 222.759 416.366 213.393 426.024 213.393C436.649 213.393 436.649 204.697 446.308 204.697C456.933 204.697 456.933 196 466.592 196C477.216 196 477.216 191.317 486.875 191.317C497.5 191.317 497.5 182.621 507.159 182.621C516.818 182.621 516.818 173.924 527.443 173.924C537.101 173.924 537.101 165.228 547.726 165.228C557.385 165.228 557.385 156.531 568.01 156.531C577.669 156.531 577.669 151.848 588.293 151.848C597.952 151.848 597.952 143.152 608.577 143.152C618.236 143.152 618.236 138.469 628.861 138.469C638.52 138.469 638.52 129.772 649.144 129.772C658.803 129.772 658.803 121.076 668.462 121.076C679.087 121.076 679.087 112.379 688.746 112.379C699.37 112.379 699.37 107.697 709.029 107.697C719.654 107.697 719.654 103.683 729.313 103.683C739.938 103.683 739.938 99 749.596 99C760.221 99 760.221 90.3034 769.88 90.3034C780.505 90.3034 780.505 81.6069 790.164 81.6069C800.789 81.6069 800.789 72.9103 810.447 72.9103C821.072 72.9103 821.072 63.5448 830.731 63.5448C840.39 63.5448 840.39 54.8483 851.015 54.8483C860.673 54.8483 860.673 50.8345 871.298 50.8345C880.957 50.8345 880.957 41.469 891.582 41.469C901.241 41.469 901.241 32.7724 911.866 32.7724C921.524 32.7724 921.524 24.0759 932.149 24.0759C941.808 24.0759 941.808 15.3793 952.433 15.3793C962.092 15.3793 962.092 10.6966 972.716 10.6966C982.375 10.6966 993 2 993 2" stroke="#FF6868" stroke-width="4" stroke-linecap="round"/>
</svg>
