<svg width="256" height="257" viewBox="0 0 256 257" fill="none" xmlns="http://www.w3.org/2000/svg">
<path d="M256 0H0V257H256V0Z" fill="#E9ECEF"/>
<path d="M24.3204 15.4199H15.3604V24.4149H24.3204V15.4199Z" fill="black"/>
<path d="M33.2803 15.4199H24.3203V24.4149H33.2803V15.4199Z" fill="black"/>
<path d="M42.2393 15.4199H33.2793V24.4149H42.2393V15.4199Z" fill="black"/>
<path d="M51.2012 15.4199H42.2412V24.4149H51.2012V15.4199Z" fill="black"/>
<path d="M60.1602 15.4199H51.2002V24.4149H60.1602V15.4199Z" fill="black"/>
<path d="M69.1201 15.4199H60.1602V24.4149H69.1201V15.4199Z" fill="black"/>
<path d="M78.0791 15.4199H69.1191V24.4149H78.0791V15.4199Z" fill="black"/>
<path d="M113.92 15.4199H104.96V24.4149H113.92V15.4199Z" fill="black"/>
<path d="M158.721 15.4199H149.761V24.4149H158.721V15.4199Z" fill="black"/>
<path d="M185.6 15.4199H176.64V24.4149H185.6V15.4199Z" fill="black"/>
<path d="M194.56 15.4199H185.6V24.4149H194.56V15.4199Z" fill="black"/>
<path d="M203.521 15.4199H194.561V24.4149H203.521V15.4199Z" fill="black"/>
<path d="M212.481 15.4199H203.521V24.4149H212.481V15.4199Z" fill="black"/>
<path d="M221.439 15.4199H212.479V24.4149H221.439V15.4199Z" fill="black"/>
<path d="M230.399 15.4199H221.439V24.4149H230.399V15.4199Z" fill="black"/>
<path d="M239.36 15.4199H230.4V24.4149H239.36V15.4199Z" fill="black"/>
<path d="M24.3204 24.4148H15.3604V33.4098H24.3204V24.4148Z" fill="black"/>
<path d="M78.0791 24.4148H69.1191V33.4098H78.0791V24.4148Z" fill="black"/>
<path d="M96 24.4148H87.04V33.4098H96V24.4148Z" fill="black"/>
<path d="M104.96 24.4148H96V33.4098H104.96V24.4148Z" fill="black"/>
<path d="M113.92 24.4148H104.96V33.4098H113.92V24.4148Z" fill="black"/>
<path d="M149.76 24.4148H140.8V33.4098H149.76V24.4148Z" fill="black"/>
<path d="M158.721 24.4148H149.761V33.4098H158.721V24.4148Z" fill="black"/>
<path d="M167.681 24.4148H158.721V33.4098H167.681V24.4148Z" fill="black"/>
<path d="M185.6 24.4148H176.64V33.4098H185.6V24.4148Z" fill="black"/>
<path d="M239.36 24.4148H230.4V33.4098H239.36V24.4148Z" fill="black"/>
<path d="M24.3204 33.4099H15.3604V42.4049H24.3204V33.4099Z" fill="black"/>
<path d="M42.2393 33.4099H33.2793V42.4049H42.2393V33.4099Z" fill="black"/>
<path d="M51.2012 33.4099H42.2412V42.4049H51.2012V33.4099Z" fill="black"/>
<path d="M60.1602 33.4099H51.2002V42.4049H60.1602V33.4099Z" fill="black"/>
<path d="M78.0791 33.4099H69.1191V42.4049H78.0791V33.4099Z" fill="black"/>
<path d="M96 33.4099H87.04V42.4049H96V33.4099Z" fill="black"/>
<path d="M167.681 33.4099H158.721V42.4049H167.681V33.4099Z" fill="black"/>
<path d="M185.6 33.4099H176.64V42.4049H185.6V33.4099Z" fill="black"/>
<path d="M203.521 33.4099H194.561V42.4049H203.521V33.4099Z" fill="black"/>
<path d="M212.481 33.4099H203.521V42.4049H212.481V33.4099Z" fill="black"/>
<path d="M221.439 33.4099H212.479V42.4049H221.439V33.4099Z" fill="black"/>
<path d="M239.36 33.4099H230.4V42.4049H239.36V33.4099Z" fill="black"/>
<path d="M24.3204 42.4048H15.3604V51.3998H24.3204V42.4048Z" fill="black"/>
<path d="M42.2393 42.4048H33.2793V51.3998H42.2393V42.4048Z" fill="black"/>
<path d="M51.2012 42.4048H42.2412V51.3998H51.2012V42.4048Z" fill="black"/>
<path d="M60.1602 42.4048H51.2002V51.3998H60.1602V42.4048Z" fill="black"/>
<path d="M78.0791 42.4048H69.1191V51.3998H78.0791V42.4048Z" fill="black"/>
<path d="M104.96 42.4048H96V51.3998H104.96V42.4048Z" fill="black"/>
<path d="M131.841 42.4048H122.881V51.3998H131.841V42.4048Z" fill="black"/>
<path d="M149.76 42.4048H140.8V51.3998H149.76V42.4048Z" fill="black"/>
<path d="M158.721 42.4048H149.761V51.3998H158.721V42.4048Z" fill="black"/>
<path d="M185.6 42.4048H176.64V51.3998H185.6V42.4048Z" fill="black"/>
<path d="M203.521 42.4048H194.561V51.3998H203.521V42.4048Z" fill="black"/>
<path d="M212.481 42.4048H203.521V51.3998H212.481V42.4048Z" fill="black"/>
<path d="M221.439 42.4048H212.479V51.3998H221.439V42.4048Z" fill="black"/>
<path d="M239.36 42.4048H230.4V51.3998H239.36V42.4048Z" fill="black"/>
<path d="M24.3204 51.3999H15.3604V60.3949H24.3204V51.3999Z" fill="black"/>
<path d="M42.2393 51.3999H33.2793V60.3949H42.2393V51.3999Z" fill="black"/>
<path d="M51.2012 51.3999H42.2412V60.3949H51.2012V51.3999Z" fill="black"/>
<path d="M60.1602 51.3999H51.2002V60.3949H60.1602V51.3999Z" fill="black"/>
<path d="M78.0791 51.3999H69.1191V60.3949H78.0791V51.3999Z" fill="black"/>
<path d="M96 51.3999H87.04V60.3949H96V51.3999Z" fill="black"/>
<path d="M104.96 51.3999H96V60.3949H104.96V51.3999Z" fill="black"/>
<path d="M113.92 51.3999H104.96V60.3949H113.92V51.3999Z" fill="black"/>
<path d="M131.841 51.3999H122.881V60.3949H131.841V51.3999Z" fill="black"/>
<path d="M149.76 51.3999H140.8V60.3949H149.76V51.3999Z" fill="black"/>
<path d="M158.721 51.3999H149.761V60.3949H158.721V51.3999Z" fill="black"/>
<path d="M185.6 51.3999H176.64V60.3949H185.6V51.3999Z" fill="black"/>
<path d="M203.521 51.3999H194.561V60.3949H203.521V51.3999Z" fill="black"/>
<path d="M212.481 51.3999H203.521V60.3949H212.481V51.3999Z" fill="black"/>
<path d="M221.439 51.3999H212.479V60.3949H221.439V51.3999Z" fill="black"/>
<path d="M239.36 51.3999H230.4V60.3949H239.36V51.3999Z" fill="black"/>
<path d="M24.3204 60.395H15.3604V69.39H24.3204V60.395Z" fill="black"/>
<path d="M78.0791 60.395H69.1191V69.39H78.0791V60.395Z" fill="black"/>
<path d="M96 60.395H87.04V69.39H96V60.395Z" fill="black"/>
<path d="M113.92 60.395H104.96V69.39H113.92V60.395Z" fill="black"/>
<path d="M131.841 60.395H122.881V69.39H131.841V60.395Z" fill="black"/>
<path d="M140.8 60.395H131.84V69.39H140.8V60.395Z" fill="black"/>
<path d="M149.76 60.395H140.8V69.39H149.76V60.395Z" fill="black"/>
<path d="M158.721 60.395H149.761V69.39H158.721V60.395Z" fill="black"/>
<path d="M185.6 60.395H176.64V69.39H185.6V60.395Z" fill="black"/>
<path d="M239.36 60.395H230.4V69.39H239.36V60.395Z" fill="black"/>
<path d="M24.3204 69.3899H15.3604V78.3849H24.3204V69.3899Z" fill="black"/>
<path d="M33.2803 69.3899H24.3203V78.3849H33.2803V69.3899Z" fill="black"/>
<path d="M42.2393 69.3899H33.2793V78.3849H42.2393V69.3899Z" fill="black"/>
<path d="M51.2012 69.3899H42.2412V78.3849H51.2012V69.3899Z" fill="black"/>
<path d="M60.1602 69.3899H51.2002V78.3849H60.1602V69.3899Z" fill="black"/>
<path d="M69.1201 69.3899H60.1602V78.3849H69.1201V69.3899Z" fill="black"/>
<path d="M78.0791 69.3899H69.1191V78.3849H78.0791V69.3899Z" fill="black"/>
<path d="M96 69.3899H87.04V78.3849H96V69.3899Z" fill="black"/>
<path d="M113.92 69.3899H104.96V78.3849H113.92V69.3899Z" fill="black"/>
<path d="M131.841 69.3899H122.881V78.3849H131.841V69.3899Z" fill="black"/>
<path d="M149.76 69.3899H140.8V78.3849H149.76V69.3899Z" fill="black"/>
<path d="M167.681 69.3899H158.721V78.3849H167.681V69.3899Z" fill="black"/>
<path d="M185.6 69.3899H176.64V78.3849H185.6V69.3899Z" fill="black"/>
<path d="M194.56 69.3899H185.6V78.3849H194.56V69.3899Z" fill="black"/>
<path d="M203.521 69.3899H194.561V78.3849H203.521V69.3899Z" fill="black"/>
<path d="M212.481 69.3899H203.521V78.3849H212.481V69.3899Z" fill="black"/>
<path d="M221.439 69.3899H212.479V78.3849H221.439V69.3899Z" fill="black"/>
<path d="M230.399 69.3899H221.439V78.3849H230.399V69.3899Z" fill="black"/>
<path d="M239.36 69.3899H230.4V78.3849H239.36V69.3899Z" fill="black"/>
<path d="M96 78.385H87.04V87.38H96V78.385Z" fill="black"/>
<path d="M113.92 78.385H104.96V87.38H113.92V78.385Z" fill="black"/>
<path d="M122.879 78.385H113.919V87.38H122.879V78.385Z" fill="black"/>
<path d="M24.3204 87.3799H15.3604V96.3749H24.3204V87.3799Z" fill="black"/>
<path d="M33.2803 87.3799H24.3203V96.3749H33.2803V87.3799Z" fill="black"/>
<path d="M51.2012 87.3799H42.2412V96.3749H51.2012V87.3799Z" fill="black"/>
<path d="M78.0791 87.3799H69.1191V96.3749H78.0791V87.3799Z" fill="black"/>
<path d="M87.0411 87.3799H78.0811V96.3749H87.0411V87.3799Z" fill="black"/>
<path d="M122.879 87.3799H113.919V96.3749H122.879V87.3799Z" fill="black"/>
<path d="M131.841 87.3799H122.881V96.3749H131.841V87.3799Z" fill="black"/>
<path d="M140.8 87.3799H131.84V96.3749H140.8V87.3799Z" fill="black"/>
<path d="M149.76 87.3799H140.8V96.3749H149.76V87.3799Z" fill="black"/>
<path d="M158.721 87.3799H149.761V96.3749H158.721V87.3799Z" fill="black"/>
<path d="M167.681 87.3799H158.721V96.3749H167.681V87.3799Z" fill="black"/>
<path d="M185.6 87.3799H176.64V96.3749H185.6V87.3799Z" fill="black"/>
<path d="M194.56 87.3799H185.6V96.3749H194.56V87.3799Z" fill="black"/>
<path d="M203.521 87.3799H194.561V96.3749H203.521V87.3799Z" fill="black"/>
<path d="M221.439 87.3799H212.479V96.3749H221.439V87.3799Z" fill="black"/>
<path d="M230.399 87.3799H221.439V96.3749H230.399V87.3799Z" fill="black"/>
<path d="M33.2803 96.375H24.3203V105.37H33.2803V96.375Z" fill="black"/>
<path d="M42.2393 96.375H33.2793V105.37H42.2393V96.375Z" fill="black"/>
<path d="M69.1201 96.375H60.1602V105.37H69.1201V96.375Z" fill="black"/>
<path d="M87.0411 96.375H78.0811V105.37H87.0411V96.375Z" fill="black"/>
<path d="M104.96 96.375H96V105.37H104.96V96.375Z" fill="black"/>
<path d="M122.879 96.375H113.919V105.37H122.879V96.375Z" fill="black"/>
<path d="M131.841 96.375H122.881V105.37H131.841V96.375Z" fill="black"/>
<path d="M167.681 96.375H158.721V105.37H167.681V96.375Z" fill="black"/>
<path d="M176.64 96.375H167.68V105.37H176.64V96.375Z" fill="black"/>
<path d="M185.6 96.375H176.64V105.37H185.6V96.375Z" fill="black"/>
<path d="M212.481 96.375H203.521V105.37H212.481V96.375Z" fill="black"/>
<path d="M221.439 96.375H212.479V105.37H221.439V96.375Z" fill="black"/>
<path d="M239.36 96.375H230.4V105.37H239.36V96.375Z" fill="black"/>
<path d="M24.3204 105.37H15.3604V114.365H24.3204V105.37Z" fill="black"/>
<path d="M42.2393 105.37H33.2793V114.365H42.2393V105.37Z" fill="black"/>
<path d="M51.2012 105.37H42.2412V114.365H51.2012V105.37Z" fill="black"/>
<path d="M60.1602 105.37H51.2002V114.365H60.1602V105.37Z" fill="black"/>
<path d="M78.0791 105.37H69.1191V114.365H78.0791V105.37Z" fill="black"/>
<path d="M96 105.37H87.04V114.365H96V105.37Z" fill="black"/>
<path d="M122.879 105.37H113.919V114.365H122.879V105.37Z" fill="black"/>
<path d="M131.841 105.37H122.881V114.365H131.841V105.37Z" fill="black"/>
<path d="M140.8 105.37H131.84V114.365H140.8V105.37Z" fill="black"/>
<path d="M149.76 105.37H140.8V114.365H149.76V105.37Z" fill="black"/>
<path d="M167.681 105.37H158.721V114.365H167.681V105.37Z" fill="black"/>
<path d="M176.64 105.37H167.68V114.365H176.64V105.37Z" fill="black"/>
<path d="M203.521 105.37H194.561V114.365H203.521V105.37Z" fill="black"/>
<path d="M212.481 105.37H203.521V114.365H212.481V105.37Z" fill="black"/>
<path d="M230.399 105.37H221.439V114.365H230.399V105.37Z" fill="black"/>
<path d="M239.36 105.37H230.4V114.365H239.36V105.37Z" fill="black"/>
<path d="M33.2803 114.365H24.3203V123.36H33.2803V114.365Z" fill="black"/>
<path d="M51.2012 114.365H42.2412V123.36H51.2012V114.365Z" fill="black"/>
<path d="M87.0411 114.365H78.0811V123.36H87.0411V114.365Z" fill="black"/>
<path d="M96 114.365H87.04V123.36H96V114.365Z" fill="black"/>
<path d="M104.96 114.365H96V123.36H104.96V114.365Z" fill="black"/>
<path d="M113.92 114.365H104.96V123.36H113.92V114.365Z" fill="black"/>
<path d="M122.879 114.365H113.919V123.36H122.879V114.365Z" fill="black"/>
<path d="M131.841 114.365H122.881V123.36H131.841V114.365Z" fill="black"/>
<path d="M140.8 114.365H131.84V123.36H140.8V114.365Z" fill="black"/>
<path d="M158.721 114.365H149.761V123.36H158.721V114.365Z" fill="black"/>
<path d="M176.64 114.365H167.68V123.36H176.64V114.365Z" fill="black"/>
<path d="M185.6 114.365H176.64V123.36H185.6V114.365Z" fill="black"/>
<path d="M194.56 114.365H185.6V123.36H194.56V114.365Z" fill="black"/>
<path d="M212.481 114.365H203.521V123.36H212.481V114.365Z" fill="black"/>
<path d="M60.1602 123.36H51.2002V132.355H60.1602V123.36Z" fill="black"/>
<path d="M78.0791 123.36H69.1191V132.355H78.0791V123.36Z" fill="black"/>
<path d="M87.0411 123.36H78.0811V132.355H87.0411V123.36Z" fill="black"/>
<path d="M96 123.36H87.04V132.355H96V123.36Z" fill="black"/>
<path d="M113.92 123.36H104.96V132.355H113.92V123.36Z" fill="black"/>
<path d="M122.879 123.36H113.919V132.355H122.879V123.36Z" fill="black"/>
<path d="M131.841 123.36H122.881V132.355H131.841V123.36Z" fill="black"/>
<path d="M140.8 123.36H131.84V132.355H140.8V123.36Z" fill="black"/>
<path d="M167.681 123.36H158.721V132.355H167.681V123.36Z" fill="black"/>
<path d="M176.64 123.36H167.68V132.355H176.64V123.36Z" fill="black"/>
<path d="M185.6 123.36H176.64V132.355H185.6V123.36Z" fill="black"/>
<path d="M194.56 123.36H185.6V132.355H194.56V123.36Z" fill="black"/>
<path d="M33.2803 132.355H24.3203V141.35H33.2803V132.355Z" fill="black"/>
<path d="M51.2012 132.355H42.2412V141.35H51.2012V132.355Z" fill="black"/>
<path d="M60.1602 132.355H51.2002V141.35H60.1602V132.355Z" fill="black"/>
<path d="M96 132.355H87.04V141.35H96V132.355Z" fill="black"/>
<path d="M104.96 132.355H96V141.35H104.96V132.355Z" fill="black"/>
<path d="M122.879 132.355H113.919V141.35H122.879V132.355Z" fill="black"/>
<path d="M149.76 132.355H140.8V141.35H149.76V132.355Z" fill="black"/>
<path d="M185.6 132.355H176.64V141.35H185.6V132.355Z" fill="black"/>
<path d="M194.56 132.355H185.6V141.35H194.56V132.355Z" fill="black"/>
<path d="M212.481 132.355H203.521V141.35H212.481V132.355Z" fill="black"/>
<path d="M221.439 132.355H212.479V141.35H221.439V132.355Z" fill="black"/>
<path d="M230.399 132.355H221.439V141.35H230.399V132.355Z" fill="black"/>
<path d="M239.36 132.355H230.4V141.35H239.36V132.355Z" fill="black"/>
<path d="M24.3204 141.35H15.3604V150.345H24.3204V141.35Z" fill="black"/>
<path d="M42.2393 141.35H33.2793V150.345H42.2393V141.35Z" fill="black"/>
<path d="M78.0791 141.35H69.1191V150.345H78.0791V141.35Z" fill="black"/>
<path d="M87.0411 141.35H78.0811V150.345H87.0411V141.35Z" fill="black"/>
<path d="M104.96 141.35H96V150.345H104.96V141.35Z" fill="black"/>
<path d="M122.879 141.35H113.919V150.345H122.879V141.35Z" fill="black"/>
<path d="M140.8 141.35H131.84V150.345H140.8V141.35Z" fill="black"/>
<path d="M185.6 141.35H176.64V150.345H185.6V141.35Z" fill="black"/>
<path d="M221.439 141.35H212.479V150.345H221.439V141.35Z" fill="black"/>
<path d="M239.36 141.35H230.4V150.345H239.36V141.35Z" fill="black"/>
<path d="M33.2803 150.345H24.3203V159.34H33.2803V150.345Z" fill="black"/>
<path d="M60.1602 150.345H51.2002V159.34H60.1602V150.345Z" fill="black"/>
<path d="M69.1201 150.345H60.1602V159.34H69.1201V150.345Z" fill="black"/>
<path d="M96 150.345H87.04V159.34H96V150.345Z" fill="black"/>
<path d="M104.96 150.345H96V159.34H104.96V150.345Z" fill="black"/>
<path d="M131.841 150.345H122.881V159.34H131.841V150.345Z" fill="black"/>
<path d="M140.8 150.345H131.84V159.34H140.8V150.345Z" fill="black"/>
<path d="M149.76 150.345H140.8V159.34H149.76V150.345Z" fill="black"/>
<path d="M194.56 150.345H185.6V159.34H194.56V150.345Z" fill="black"/>
<path d="M239.36 150.345H230.4V159.34H239.36V150.345Z" fill="black"/>
<path d="M24.3204 159.34H15.3604V168.335H24.3204V159.34Z" fill="black"/>
<path d="M33.2803 159.34H24.3203V168.335H33.2803V159.34Z" fill="black"/>
<path d="M51.2012 159.34H42.2412V168.335H51.2012V159.34Z" fill="black"/>
<path d="M60.1602 159.34H51.2002V168.335H60.1602V159.34Z" fill="black"/>
<path d="M69.1201 159.34H60.1602V168.335H69.1201V159.34Z" fill="black"/>
<path d="M78.0791 159.34H69.1191V168.335H78.0791V159.34Z" fill="black"/>
<path d="M87.0411 159.34H78.0811V168.335H87.0411V159.34Z" fill="black"/>
<path d="M113.92 159.34H104.96V168.335H113.92V159.34Z" fill="black"/>
<path d="M122.879 159.34H113.919V168.335H122.879V159.34Z" fill="black"/>
<path d="M131.841 159.34H122.881V168.335H131.841V159.34Z" fill="black"/>
<path d="M149.76 159.34H140.8V168.335H149.76V159.34Z" fill="black"/>
<path d="M167.681 159.34H158.721V168.335H167.681V159.34Z" fill="black"/>
<path d="M176.64 159.34H167.68V168.335H176.64V159.34Z" fill="black"/>
<path d="M185.6 159.34H176.64V168.335H185.6V159.34Z" fill="black"/>
<path d="M194.56 159.34H185.6V168.335H194.56V159.34Z" fill="black"/>
<path d="M203.521 159.34H194.561V168.335H203.521V159.34Z" fill="black"/>
<path d="M221.439 159.34H212.479V168.335H221.439V159.34Z" fill="black"/>
<path d="M230.399 159.34H221.439V168.335H230.399V159.34Z" fill="black"/>
<path d="M239.36 159.34H230.4V168.335H239.36V159.34Z" fill="black"/>
<path d="M96 168.335H87.04V177.33H96V168.335Z" fill="black"/>
<path d="M113.92 168.335H104.96V177.33H113.92V168.335Z" fill="black"/>
<path d="M122.879 168.335H113.919V177.33H122.879V168.335Z" fill="black"/>
<path d="M131.841 168.335H122.881V177.33H131.841V168.335Z" fill="black"/>
<path d="M140.8 168.335H131.84V177.33H140.8V168.335Z" fill="black"/>
<path d="M149.76 168.335H140.8V177.33H149.76V168.335Z" fill="black"/>
<path d="M158.721 168.335H149.761V177.33H158.721V168.335Z" fill="black"/>
<path d="M167.681 168.335H158.721V177.33H167.681V168.335Z" fill="black"/>
<path d="M203.521 168.335H194.561V177.33H203.521V168.335Z" fill="black"/>
<path d="M230.399 168.335H221.439V177.33H230.399V168.335Z" fill="black"/>
<path d="M239.36 168.335H230.4V177.33H239.36V168.335Z" fill="black"/>
<path d="M24.3204 177.33H15.3604V186.325H24.3204V177.33Z" fill="black"/>
<path d="M33.2803 177.33H24.3203V186.325H33.2803V177.33Z" fill="black"/>
<path d="M42.2393 177.33H33.2793V186.325H42.2393V177.33Z" fill="black"/>
<path d="M51.2012 177.33H42.2412V186.325H51.2012V177.33Z" fill="black"/>
<path d="M60.1602 177.33H51.2002V186.325H60.1602V177.33Z" fill="black"/>
<path d="M69.1201 177.33H60.1602V186.325H69.1201V177.33Z" fill="black"/>
<path d="M78.0791 177.33H69.1191V186.325H78.0791V177.33Z" fill="black"/>
<path d="M96 177.33H87.04V186.325H96V177.33Z" fill="black"/>
<path d="M104.96 177.33H96V186.325H104.96V177.33Z" fill="black"/>
<path d="M113.92 177.33H104.96V186.325H113.92V177.33Z" fill="black"/>
<path d="M149.76 177.33H140.8V186.325H149.76V177.33Z" fill="black"/>
<path d="M158.721 177.33H149.761V186.325H158.721V177.33Z" fill="black"/>
<path d="M167.681 177.33H158.721V186.325H167.681V177.33Z" fill="black"/>
<path d="M185.6 177.33H176.64V186.325H185.6V177.33Z" fill="black"/>
<path d="M203.521 177.33H194.561V186.325H203.521V177.33Z" fill="black"/>
<path d="M221.439 177.33H212.479V186.325H221.439V177.33Z" fill="black"/>
<path d="M230.399 177.33H221.439V186.325H230.399V177.33Z" fill="black"/>
<path d="M239.36 177.33H230.4V186.325H239.36V177.33Z" fill="black"/>
<path d="M24.3204 186.325H15.3604V195.32H24.3204V186.325Z" fill="black"/>
<path d="M78.0791 186.325H69.1191V195.32H78.0791V186.325Z" fill="black"/>
<path d="M104.96 186.325H96V195.32H104.96V186.325Z" fill="black"/>
<path d="M122.879 186.325H113.919V195.32H122.879V186.325Z" fill="black"/>
<path d="M167.681 186.325H158.721V195.32H167.681V186.325Z" fill="black"/>
<path d="M203.521 186.325H194.561V195.32H203.521V186.325Z" fill="black"/>
<path d="M221.439 186.325H212.479V195.32H221.439V186.325Z" fill="black"/>
<path d="M230.399 186.325H221.439V195.32H230.399V186.325Z" fill="black"/>
<path d="M239.36 186.325H230.4V195.32H239.36V186.325Z" fill="black"/>
<path d="M24.3204 195.32H15.3604V204.315H24.3204V195.32Z" fill="black"/>
<path d="M42.2393 195.32H33.2793V204.315H42.2393V195.32Z" fill="black"/>
<path d="M51.2012 195.32H42.2412V204.315H51.2012V195.32Z" fill="black"/>
<path d="M60.1602 195.32H51.2002V204.315H60.1602V195.32Z" fill="black"/>
<path d="M78.0791 195.32H69.1191V204.315H78.0791V195.32Z" fill="black"/>
<path d="M104.96 195.32H96V204.315H104.96V195.32Z" fill="black"/>
<path d="M113.92 195.32H104.96V204.315H113.92V195.32Z" fill="black"/>
<path d="M122.879 195.32H113.919V204.315H122.879V195.32Z" fill="black"/>
<path d="M131.841 195.32H122.881V204.315H131.841V195.32Z" fill="black"/>
<path d="M140.8 195.32H131.84V204.315H140.8V195.32Z" fill="black"/>
<path d="M149.76 195.32H140.8V204.315H149.76V195.32Z" fill="black"/>
<path d="M167.681 195.32H158.721V204.315H167.681V195.32Z" fill="black"/>
<path d="M176.64 195.32H167.68V204.315H176.64V195.32Z" fill="black"/>
<path d="M185.6 195.32H176.64V204.315H185.6V195.32Z" fill="black"/>
<path d="M194.56 195.32H185.6V204.315H194.56V195.32Z" fill="black"/>
<path d="M203.521 195.32H194.561V204.315H203.521V195.32Z" fill="black"/>
<path d="M230.399 195.32H221.439V204.315H230.399V195.32Z" fill="black"/>
<path d="M24.3204 204.315H15.3604V213.31H24.3204V204.315Z" fill="black"/>
<path d="M42.2393 204.315H33.2793V213.31H42.2393V204.315Z" fill="black"/>
<path d="M51.2012 204.315H42.2412V213.31H51.2012V204.315Z" fill="black"/>
<path d="M60.1602 204.315H51.2002V213.31H60.1602V204.315Z" fill="black"/>
<path d="M78.0791 204.315H69.1191V213.31H78.0791V204.315Z" fill="black"/>
<path d="M96 204.315H87.04V213.31H96V204.315Z" fill="black"/>
<path d="M131.841 204.315H122.881V213.31H131.841V204.315Z" fill="black"/>
<path d="M167.681 204.315H158.721V213.31H167.681V204.315Z" fill="black"/>
<path d="M176.64 204.315H167.68V213.31H176.64V204.315Z" fill="black"/>
<path d="M194.56 204.315H185.6V213.31H194.56V204.315Z" fill="black"/>
<path d="M203.521 204.315H194.561V213.31H203.521V204.315Z" fill="black"/>
<path d="M212.481 204.315H203.521V213.31H212.481V204.315Z" fill="black"/>
<path d="M221.439 204.315H212.479V213.31H221.439V204.315Z" fill="black"/>
<path d="M24.3204 213.31H15.3604V222.305H24.3204V213.31Z" fill="black"/>
<path d="M42.2393 213.31H33.2793V222.305H42.2393V213.31Z" fill="black"/>
<path d="M51.2012 213.31H42.2412V222.305H51.2012V213.31Z" fill="black"/>
<path d="M60.1602 213.31H51.2002V222.305H60.1602V213.31Z" fill="black"/>
<path d="M78.0791 213.31H69.1191V222.305H78.0791V213.31Z" fill="black"/>
<path d="M104.96 213.31H96V222.305H104.96V213.31Z" fill="black"/>
<path d="M113.92 213.31H104.96V222.305H113.92V213.31Z" fill="black"/>
<path d="M140.8 213.31H131.84V222.305H140.8V213.31Z" fill="black"/>
<path d="M194.56 213.31H185.6V222.305H194.56V213.31Z" fill="black"/>
<path d="M203.521 213.31H194.561V222.305H203.521V213.31Z" fill="black"/>
<path d="M212.481 213.31H203.521V222.305H212.481V213.31Z" fill="black"/>
<path d="M239.36 213.31H230.4V222.305H239.36V213.31Z" fill="black"/>
<path d="M24.3204 222.305H15.3604V231.3H24.3204V222.305Z" fill="black"/>
<path d="M78.0791 222.305H69.1191V231.3H78.0791V222.305Z" fill="black"/>
<path d="M96 222.305H87.04V231.3H96V222.305Z" fill="black"/>
<path d="M113.92 222.305H104.96V231.3H113.92V222.305Z" fill="black"/>
<path d="M131.841 222.305H122.881V231.3H131.841V222.305Z" fill="black"/>
<path d="M140.8 222.305H131.84V231.3H140.8V222.305Z" fill="black"/>
<path d="M149.76 222.305H140.8V231.3H149.76V222.305Z" fill="black"/>
<path d="M167.681 222.305H158.721V231.3H167.681V222.305Z" fill="black"/>
<path d="M194.56 222.305H185.6V231.3H194.56V222.305Z" fill="black"/>
<path d="M203.521 222.305H194.561V231.3H203.521V222.305Z" fill="black"/>
<path d="M24.3204 231.3H15.3604V240.295H24.3204V231.3Z" fill="black"/>
<path d="M33.2803 231.3H24.3203V240.295H33.2803V231.3Z" fill="black"/>
<path d="M42.2393 231.3H33.2793V240.295H42.2393V231.3Z" fill="black"/>
<path d="M51.2012 231.3H42.2412V240.295H51.2012V231.3Z" fill="black"/>
<path d="M60.1602 231.3H51.2002V240.295H60.1602V231.3Z" fill="black"/>
<path d="M69.1201 231.3H60.1602V240.295H69.1201V231.3Z" fill="black"/>
<path d="M78.0791 231.3H69.1191V240.295H78.0791V231.3Z" fill="black"/>
<path d="M96 231.3H87.04V240.295H96V231.3Z" fill="black"/>
<path d="M113.92 231.3H104.96V240.295H113.92V231.3Z" fill="black"/>
<path d="M122.879 231.3H113.919V240.295H122.879V231.3Z" fill="black"/>
<path d="M131.841 231.3H122.881V240.295H131.841V231.3Z" fill="black"/>
<path d="M140.8 231.3H131.84V240.295H140.8V231.3Z" fill="black"/>
<path d="M158.721 231.3H149.761V240.295H158.721V231.3Z" fill="black"/>
<path d="M167.681 231.3H158.721V240.295H167.681V231.3Z" fill="black"/>
<path d="M185.6 231.3H176.64V240.295H185.6V231.3Z" fill="black"/>
<path d="M194.56 231.3H185.6V240.295H194.56V231.3Z" fill="black"/>
<path d="M203.521 231.3H194.561V240.295H203.521V231.3Z" fill="black"/>
<path d="M230.399 231.3H221.439V240.295H230.399V231.3Z" fill="black"/>
<path d="M239.36 231.3H230.4V240.295H239.36V231.3Z" fill="black"/>
</svg>
